{
	"asset":{
		"generator":"Khronos glTF Blender I/O v3.5.30",
		"version":"2.0"
	},
	"scene":0,
	"scenes":[
		{
			"name":"Scene",
			"nodes":[
				0,
				1,
				2,
				3,
				4,
				5
			]
		}
	],
	"nodes":[
		{
			"mesh":0,
			"name":"Cube",
			"rotation":[
				0.22671401500701904,
				0,
				0,
				0.9739614725112915
			],
			"scale":[
				2.29990816116333,
				2.29990816116333,
				2.29990816116333
			],
			"translation":[
				0,
				1.0190421342849731,
				-3.03644061088562
			]
		},
		{
			"mesh":1,
			"name":"Sphere",
			"scale":[
				2.0435855388641357,
				2.0435855388641357,
				2.0435855388641357
			]
		},
		{
			"mesh":2,
			"name":"Sphere.001",
			"scale":[
				2.0435855388641357,
				2.0435855388641357,
				2.0435855388641357
			]
		},
		{
			"mesh":3,
			"name":"Cube.001",
			"rotation":[
				0.22671401500701904,
				0,
				0,
				0.9739614725112915
			],
			"scale":[
				2.29990816116333,
				2.29990816116333,
				2.29990816116333
			],
			"translation":[
				0,
				1.0190421342849731,
				-3.03644061088562
			]
		},
		{
			"mesh":4,
			"name":"Sphere.002",
			"scale":[
				2.0435855388641357,
				2.0435855388641357,
				2.0435855388641357
			]
		},
		{
			"mesh":5,
			"name":"Cube.002",
			"rotation":[
				0.22671401500701904,
				0,
				0,
				0.9739614725112915
			],
			"scale":[
				2.29990816116333,
				2.29990816116333,
				2.29990816116333
			],
			"translation":[
				0,
				1.0190421342849731,
				-3.03644061088562
			]
		}
	],
	"materials":[
		{
			"doubleSided":true,
			"name":"Material",
			"pbrMetallicRoughness":{
				"baseColorFactor":[
					0.800000011920929,
					0.800000011920929,
					0.800000011920929,
					1
				],
				"metallicFactor":0,
				"roughnessFactor":0.5
			}
		},
		{
			"doubleSided":true,
			"name":"Material.001",
			"pbrMetallicRoughness":{
				"baseColorFactor":[
					0.800000011920929,
					0.800000011920929,
					0.800000011920929,
					1
				],
				"metallicFactor":0,
				"roughnessFactor":0.5
			}
		},
		{
			"doubleSided":true,
			"name":"Material.002",
			"pbrMetallicRoughness":{
				"baseColorFactor":[
					0.800000011920929,
					0.800000011920929,
					0.800000011920929,
					1
				],
				"metallicFactor":0,
				"roughnessFactor":0.5
			}
		}
	],
	"meshes":[
		{
			"name":"Cube",
			"primitives":[
				{
					"attributes":{
						"POSITION":0,
						"TEXCOORD_0":1,
						"NORMAL":2
					},
					"indices":3,
					"material":0
				}
			]
		},
		{
			"name":"Sphere",
			"primitives":[
				{
					"attributes":{
						"POSITION":4,
						"TEXCOORD_0":5,
						"NORMAL":6
					},
					"indices":7
				}
			]
		},
		{
			"name":"Sphere.001",
			"primitives":[
				{
					"attributes":{
						"POSITION":8,
						"TEXCOORD_0":9,
						"NORMAL":10
					},
					"indices":11
				}
			]
		},
		{
			"name":"Cube.001",
			"primitives":[
				{
					"attributes":{
						"POSITION":12,
						"TEXCOORD_0":13,
						"NORMAL":14
					},
					"indices":3,
					"material":1
				}
			]
		},
		{
			"name":"Sphere.002",
			"primitives":[
				{
					"attributes":{
						"POSITION":15,
						"TEXCOORD_0":16,
						"NORMAL":17
					},
					"indices":18
				}
			]
		},
		{
			"name":"Cube.002",
			"primitives":[
				{
					"attributes":{
						"POSITION":19,
						"TEXCOORD_0":20,
						"NORMAL":21
					},
					"indices":3,
					"material":2
				}
			]
		}
	],
	"accessors":[
		{
			"bufferView":0,
			"componentType":5126,
			"count":24,
			"max":[
				1,
				1,
				1
			],
			"min":[
				-1,
				-1,
				-1
			],
			"type":"VEC3"
		},
		{
			"bufferView":1,
			"componentType":5126,
			"count":24,
			"type":"VEC2"
		},
		{
			"bufferView":2,
			"componentType":5126,
			"count":24,
			"type":"VEC3"
		},
		{
			"bufferView":3,
			"componentType":5123,
			"count":36,
			"type":"SCALAR"
		},
		{
			"bufferView":4,
			"componentType":5126,
			"count":614,
			"max":[
				0.9999997019767761,
				0.9985619187355042,
				0.9999993443489075
			],
			"min":[
				-0.9999990463256836,
				0,
				-0.4769119620323181
			],
			"type":"VEC3"
		},
		{
			"bufferView":5,
			"componentType":5126,
			"count":614,
			"type":"VEC2"
		},
		{
			"bufferView":6,
			"componentType":5126,
			"count":614,
			"type":"VEC3"
		},
		{
			"bufferView":7,
			"componentType":5123,
			"count":918,
			"type":"SCALAR"
		},
		{
			"bufferView":8,
			"componentType":5126,
			"count":546,
			"max":[
				0.9031584858894348,
				1,
				0.01460105087608099
			],
			"min":[
				-0.9031581282615662,
				0,
				-1
			],
			"type":"VEC3"
		},
		{
			"bufferView":9,
			"componentType":5126,
			"count":546,
			"type":"VEC2"
		},
		{
			"bufferView":10,
			"componentType":5126,
			"count":546,
			"type":"VEC3"
		},
		{
			"bufferView":11,
			"componentType":5123,
			"count":876,
			"type":"SCALAR"
		},
		{
			"bufferView":12,
			"componentType":5126,
			"count":24,
			"max":[
				1,
				1,
				1
			],
			"min":[
				-1,
				-1,
				-1
			],
			"type":"VEC3"
		},
		{
			"bufferView":13,
			"componentType":5126,
			"count":24,
			"type":"VEC2"
		},
		{
			"bufferView":14,
			"componentType":5126,
			"count":24,
			"type":"VEC3"
		},
		{
			"bufferView":15,
			"componentType":5126,
			"count":992,
			"max":[
				0.9999997019767761,
				1,
				0.9999993443489075
			],
			"min":[
				-0.9999990463256836,
				0,
				-1
			],
			"type":"VEC3"
		},
		{
			"bufferView":16,
			"componentType":5126,
			"count":992,
			"type":"VEC2"
		},
		{
			"bufferView":17,
			"componentType":5126,
			"count":992,
			"type":"VEC3"
		},
		{
			"bufferView":18,
			"componentType":5123,
			"count":1440,
			"type":"SCALAR"
		},
		{
			"bufferView":19,
			"componentType":5126,
			"count":24,
			"max":[
				1,
				1,
				1
			],
			"min":[
				-1,
				-1,
				-1
			],
			"type":"VEC3"
		},
		{
			"bufferView":20,
			"componentType":5126,
			"count":24,
			"type":"VEC2"
		},
		{
			"bufferView":21,
			"componentType":5126,
			"count":24,
			"type":"VEC3"
		}
	],
	"bufferViews":[
		{
			"buffer":0,
			"byteLength":288,
			"byteOffset":0,
			"target":34962
		},
		{
			"buffer":0,
			"byteLength":192,
			"byteOffset":288,
			"target":34962
		},
		{
			"buffer":0,
			"byteLength":288,
			"byteOffset":480,
			"target":34962
		},
		{
			"buffer":0,
			"byteLength":72,
			"byteOffset":768,
			"target":34963
		},
		{
			"buffer":0,
			"byteLength":7368,
			"byteOffset":840,
			"target":34962
		},
		{
			"buffer":0,
			"byteLength":4912,
			"byteOffset":8208,
			"target":34962
		},
		{
			"buffer":0,
			"byteLength":7368,
			"byteOffset":13120,
			"target":34962
		},
		{
			"buffer":0,
			"byteLength":1836,
			"byteOffset":20488,
			"target":34963
		},
		{
			"buffer":0,
			"byteLength":6552,
			"byteOffset":22324,
			"target":34962
		},
		{
			"buffer":0,
			"byteLength":4368,
			"byteOffset":28876,
			"target":34962
		},
		{
			"buffer":0,
			"byteLength":6552,
			"byteOffset":33244,
			"target":34962
		},
		{
			"buffer":0,
			"byteLength":1752,
			"byteOffset":39796,
			"target":34963
		},
		{
			"buffer":0,
			"byteLength":288,
			"byteOffset":41548,
			"target":34962
		},
		{
			"buffer":0,
			"byteLength":192,
			"byteOffset":41836,
			"target":34962
		},
		{
			"buffer":0,
			"byteLength":288,
			"byteOffset":42028,
			"target":34962
		},
		{
			"buffer":0,
			"byteLength":11904,
			"byteOffset":42316,
			"target":34962
		},
		{
			"buffer":0,
			"byteLength":7936,
			"byteOffset":54220,
			"target":34962
		},
		{
			"buffer":0,
			"byteLength":11904,
			"byteOffset":62156,
			"target":34962
		},
		{
			"buffer":0,
			"byteLength":2880,
			"byteOffset":74060,
			"target":34963
		},
		{
			"buffer":0,
			"byteLength":288,
			"byteOffset":76940,
			"target":34962
		},
		{
			"buffer":0,
			"byteLength":192,
			"byteOffset":77228,
			"target":34962
		},
		{
			"buffer":0,
			"byteLength":288,
			"byteOffset":77420,
			"target":34962
		}
	],
	"buffers":[
		{
			"byteLength":77708,
			"uri":"data:application/octet-stream;base64,"
		}
	]
}
