{
	"asset":{
		"generator":"Khronos glTF Blender I/O v3.5.30",
		"version":"2.0"
	},
	"extensionsUsed":[
		"KHR_materials_specular",
		"KHR_materials_ior"
	],
	"scene":0,
	"scenes":[
		{
			"name":"Scene",
			"nodes":[
				0,
				1,
				2,
				3,
				4
			]
		}
	],
	"nodes":[
		{
			"mesh":0,
			"name":"SketchUp",
			"scale":[
				0.02539999783039093,
				0.02539999783039093,
				0.02539999783039093
			]
		},
		{
			"mesh":1,
			"name":"SketchUp.001",
			"scale":[
				0.02539999783039093,
				0.02539999783039093,
				0.02539999783039093
			]
		},
		{
			"mesh":2,
			"name":"SketchUp.002",
			"scale":[
				0.02539999783039093,
				0.02539999783039093,
				0.02539999783039093
			]
		},
		{
			"mesh":3,
			"name":"SketchUp.003",
			"scale":[
				0.02539999783039093,
				0.02539999783039093,
				0.02539999783039093
			]
		},
		{
			"mesh":4,
			"name":"SketchUp.004",
			"scale":[
				0.02539999783039093,
				0.02539999783039093,
				0.02539999783039093
			]
		}
	],
	"materials":[
		{
			"doubleSided":true,
			"extensions":{
				"KHR_materials_specular":{
					"specularColorFactor":[
						0,
						0,
						0
					]
				},
				"KHR_materials_ior":{
					"ior":1.4500000476837158
				}
			},
			"name":"Color_006_",
			"pbrMetallicRoughness":{
				"baseColorFactor":[
					0.33725491166114807,
					0.33725491166114807,
					0.33725491166114807,
					1
				],
				"metallicFactor":0,
				"roughnessFactor":0.5
			}
		},
		{
			"doubleSided":true,
			"extensions":{
				"KHR_materials_specular":{
					"specularColorFactor":[
						0,
						0,
						0
					]
				},
				"KHR_materials_ior":{
					"ior":1.4500000476837158
				}
			},
			"name":"Color_E01_",
			"pbrMetallicRoughness":{
				"baseColorFactor":[
					1,
					1,
					0,
					1
				],
				"metallicFactor":0,
				"roughnessFactor":0.5
			}
		}
	],
	"meshes":[
		{
			"name":"ID2",
			"primitives":[
				{
					"attributes":{
						"POSITION":0,
						"NORMAL":1
					},
					"indices":2,
					"material":0
				}
			]
		},
		{
			"name":"ID10",
			"primitives":[
				{
					"attributes":{
						"POSITION":3,
						"NORMAL":4
					},
					"indices":5,
					"material":0
				}
			]
		},
		{
			"name":"ID16",
			"primitives":[
				{
					"attributes":{
						"POSITION":6,
						"NORMAL":7
					},
					"indices":8,
					"material":0
				}
			]
		},
		{
			"name":"ID22",
			"primitives":[
				{
					"attributes":{
						"POSITION":9,
						"NORMAL":10
					},
					"indices":11,
					"material":0
				}
			]
		},
		{
			"name":"ID28",
			"primitives":[
				{
					"attributes":{
						"POSITION":12,
						"NORMAL":13
					},
					"indices":14,
					"material":1
				}
			]
		}
	],
	"accessors":[
		{
			"bufferView":0,
			"componentType":5126,
			"count":100,
			"max":[
				196.8503875732422,
				0,
				196.8503875732422
			],
			"min":[
				-196.8503875732422,
				0,
				-196.8503875732422
			],
			"type":"VEC3"
		},
		{
			"bufferView":1,
			"componentType":5126,
			"count":100,
			"type":"VEC3"
		},
		{
			"bufferView":2,
			"componentType":5123,
			"count":288,
			"type":"SCALAR"
		},
		{
			"bufferView":3,
			"componentType":5126,
			"count":100,
			"max":[
				157.48031616210938,
				0,
				157.48031616210938
			],
			"min":[
				-157.48031616210938,
				0,
				-157.48031616210938
			],
			"type":"VEC3"
		},
		{
			"bufferView":4,
			"componentType":5126,
			"count":100,
			"type":"VEC3"
		},
		{
			"bufferView":5,
			"componentType":5123,
			"count":288,
			"type":"SCALAR"
		},
		{
			"bufferView":6,
			"componentType":5126,
			"count":100,
			"max":[
				137.79527282714844,
				0,
				137.79527282714844
			],
			"min":[
				-137.79527282714844,
				0,
				-137.79527282714844
			],
			"type":"VEC3"
		},
		{
			"bufferView":7,
			"componentType":5126,
			"count":100,
			"type":"VEC3"
		},
		{
			"bufferView":8,
			"componentType":5123,
			"count":288,
			"type":"SCALAR"
		},
		{
			"bufferView":9,
			"componentType":5126,
			"count":100,
			"max":[
				177.1653594970703,
				0,
				177.1653594970703
			],
			"min":[
				-177.1653594970703,
				0,
				-177.1653594970703
			],
			"type":"VEC3"
		},
		{
			"bufferView":10,
			"componentType":5126,
			"count":100,
			"type":"VEC3"
		},
		{
			"bufferView":11,
			"componentType":5123,
			"count":288,
			"type":"SCALAR"
		},
		{
			"bufferView":12,
			"componentType":5126,
			"count":500,
			"max":[
				197.85902404785156,
				0,
				197.85902404785156
			],
			"min":[
				-197.85902404785156,
				0,
				-197.85902404785156
			],
			"type":"VEC3"
		},
		{
			"bufferView":13,
			"componentType":5126,
			"count":500,
			"type":"VEC3"
		},
		{
			"bufferView":14,
			"componentType":5123,
			"count":1548,
			"type":"SCALAR"
		}
	],
	"bufferViews":[
		{
			"buffer":0,
			"byteLength":1200,
			"byteOffset":0,
			"target":34962
		},
		{
			"buffer":0,
			"byteLength":1200,
			"byteOffset":1200,
			"target":34962
		},
		{
			"buffer":0,
			"byteLength":576,
			"byteOffset":2400,
			"target":34963
		},
		{
			"buffer":0,
			"byteLength":1200,
			"byteOffset":2976,
			"target":34962
		},
		{
			"buffer":0,
			"byteLength":1200,
			"byteOffset":4176,
			"target":34962
		},
		{
			"buffer":0,
			"byteLength":576,
			"byteOffset":5376,
			"target":34963
		},
		{
			"buffer":0,
			"byteLength":1200,
			"byteOffset":5952,
			"target":34962
		},
		{
			"buffer":0,
			"byteLength":1200,
			"byteOffset":7152,
			"target":34962
		},
		{
			"buffer":0,
			"byteLength":576,
			"byteOffset":8352,
			"target":34963
		},
		{
			"buffer":0,
			"byteLength":1200,
			"byteOffset":8928,
			"target":34962
		},
		{
			"buffer":0,
			"byteLength":1200,
			"byteOffset":10128,
			"target":34962
		},
		{
			"buffer":0,
			"byteLength":576,
			"byteOffset":11328,
			"target":34963
		},
		{
			"buffer":0,
			"byteLength":6000,
			"byteOffset":11904,
			"target":34962
		},
		{
			"buffer":0,
			"byteLength":6000,
			"byteOffset":17904,
			"target":34962
		},
		{
			"buffer":0,
			"byteLength":3096,
			"byteOffset":23904,
			"target":34963
		}
	],
	"buffers":[
		{
			"byteLength":27000,
			"uri":"data:application/octet-stream;base64,"
		}
	]
}
